<svg width="45" height="45" viewBox="0 0 45 45" fill="none" xmlns="http://www.w3.org/2000/svg">
<g clip-path="url(#clip0_59149_353)">
<path d="M14.6778 12.0817L27.6882 33.0383L29.3873 31.9834C30.6386 31.2065 31.0232 29.5625 30.2464 28.3113L20.0491 11.8859C19.2723 10.6346 17.6283 10.25 16.377 11.0268L14.6778 12.0817Z" fill="#5BAA76"/>
<path d="M15.2465 34.4848C16.8001 36.9873 20.0882 37.7565 22.5906 36.2029L26.5554 33.7415L13.5451 12.785L7.31475 16.6529C6.06351 17.4297 5.67888 19.0738 6.4557 20.325L15.2465 34.4848Z" fill="black" fill-opacity="0.25"/>
<path d="M11.0269 27.6881L12.0818 29.3873L15.7633 27.1017C16.2325 26.8104 16.3768 26.1939 16.0855 25.7247C15.7942 25.2555 15.1777 25.1112 14.7084 25.4025L11.0269 27.6881Z" fill="#5BAA76"/>
<path d="M8.21385 23.157L9.26874 24.8562L15.2159 21.164C15.6851 20.8728 15.8293 20.2562 15.538 19.787C15.2467 19.3178 14.6302 19.1736 14.161 19.4649L8.21385 23.157Z" fill="#5BAA76"/>
<path d="M27.9207 14.4536L23.3896 17.2666L26.9059 22.9305L31.437 20.1175C33.0011 19.1465 33.4818 17.0914 32.5108 15.5274C31.5398 13.9633 29.4848 13.4826 27.9207 14.4536Z" fill="#5BAA76"/>
</g>
<defs>
<clipPath id="clip0_59149_353">
<rect width="32" height="32" fill="white" transform="translate(16.8783 44.0651) rotate(-121.833)"/>
</clipPath>
</defs>
</svg>
