<svg width="234" height="234" xmlns="http://www.w3.org/2000/svg" xmlns:xlink="http://www.w3.org/1999/xlink" xml:space="preserve" overflow="hidden"><defs><clipPath id="clip0"><rect x="515" y="628" width="234" height="234"/></clipPath></defs><g clip-path="url(#clip0)" transform="translate(-515 -628)"><path d="M567 669C572.667 669 577 664.558 577 658.75L577 638.25C577 632.442 572.667 628 567 628 561.333 628 557 632.442 557 638.25L557 658.75C557 664.558 561.333 669 567 669Z" fill="#C04F15" fill-rule="evenodd"/><path d="M535.647 813.636 590.706 813.636 590.706 841.273 535.647 841.273 535.647 813.636ZM535.647 772.182 590.706 772.182 590.706 799.818 535.647 799.818 535.647 772.182ZM535.647 730.727 590.706 730.727 590.706 758.364 535.647 758.364 535.647 730.727ZM659.529 730.727 659.529 758.364 604.471 758.364 604.471 730.727 659.529 730.727ZM728.353 730.727 728.353 758.364 673.294 758.364 673.294 730.727 728.353 730.727ZM728.353 799.818 673.294 799.818 673.294 772.182 728.353 772.182 728.353 799.818ZM728.353 841.273 673.294 841.273 673.294 813.636 728.353 813.636 728.353 841.273ZM604.471 799.818 604.471 772.182 659.529 772.182 659.529 799.818 604.471 799.818ZM604.471 841.273 604.471 813.636 659.529 813.636 659.529 841.273 604.471 841.273ZM515 862 749 862 749 710 515 710 515 862Z" fill="#C04F15" fill-rule="evenodd"/><path d="M697.5 669C703.45 669 708 664.558 708 658.75L708 638.25C708 632.442 703.45 628 697.5 628 691.55 628 687 632.442 687 638.25L687 658.75C687 664.558 691.55 669 697.5 669Z" fill="#C04F15" fill-rule="evenodd"/><path d="M721.471 649 721.471 659.286C721.471 672.657 710.803 683.286 697.382 683.286 683.962 683.286 673.294 672.657 673.294 659.286L673.294 649 590.706 649 590.706 659.286C590.706 672.657 580.038 683.286 566.618 683.286 553.197 683.286 542.529 672.657 542.529 659.286L542.529 649 515 649 515 697 749 697 749 649 721.471 649Z" fill="#C04F15" fill-rule="evenodd"/></g></svg>