<svg width="233" height="234" xmlns="http://www.w3.org/2000/svg" xmlns:xlink="http://www.w3.org/1999/xlink" xml:space="preserve" overflow="hidden"><defs><clipPath id="clip0"><rect x="1211" y="628" width="233" height="234"/></clipPath></defs><g clip-path="url(#clip0)" transform="translate(-1211 -628)"><path d="M1262.5 669C1268.45 669 1273 664.558 1273 658.75L1273 638.25C1273 632.442 1268.45 628 1262.5 628 1256.55 628 1252 632.442 1252 638.25L1252 658.75C1252 664.558 1256.55 669 1262.5 669Z" fill="#3B7D23" fill-rule="evenodd"/><path d="M1231.56 813.636 1286.38 813.636 1286.38 841.273 1231.56 841.273 1231.56 813.636ZM1231.56 772.182 1286.38 772.182 1286.38 799.818 1231.56 799.818 1231.56 772.182ZM1231.56 730.727 1286.38 730.727 1286.38 758.364 1231.56 758.364 1231.56 730.727ZM1354.91 730.727 1354.91 758.364 1300.09 758.364 1300.09 730.727 1354.91 730.727ZM1423.44 730.727 1423.44 758.364 1368.62 758.364 1368.62 730.727 1423.44 730.727ZM1423.44 799.818 1368.62 799.818 1368.62 772.182 1423.44 772.182 1423.44 799.818ZM1423.44 841.273 1368.62 841.273 1368.62 813.636 1423.44 813.636 1423.44 841.273ZM1300.09 799.818 1300.09 772.182 1354.91 772.182 1354.91 799.818 1300.09 799.818ZM1300.09 841.273 1300.09 813.636 1354.91 813.636 1354.91 841.273 1300.09 841.273ZM1211 862 1444 862 1444 710 1211 710 1211 862Z" fill="#3B7D23" fill-rule="evenodd"/><path d="M1393 669C1398.67 669 1403 664.558 1403 658.75L1403 638.25C1403 632.442 1398.67 628 1393 628 1387.33 628 1383 632.442 1383 638.25L1383 658.75C1383 664.558 1387.33 669 1393 669Z" fill="#3B7D23" fill-rule="evenodd"/><path d="M1416.59 649 1416.59 659.286C1416.59 672.657 1405.97 683.286 1392.6 683.286 1379.24 683.286 1368.62 672.657 1368.62 659.286L1368.62 649 1286.38 649 1286.38 659.286C1286.38 672.657 1275.76 683.286 1262.4 683.286 1249.03 683.286 1238.41 672.657 1238.41 659.286L1238.41 649 1211 649 1211 697 1444 697 1444 649 1416.59 649Z" fill="#3B7D23" fill-rule="evenodd"/></g></svg>