<svg width="234" height="234" xmlns="http://www.w3.org/2000/svg" xmlns:xlink="http://www.w3.org/1999/xlink" xml:space="preserve" overflow="hidden"><defs><clipPath id="clip0"><rect x="863" y="628" width="234" height="234"/></clipPath></defs><g clip-path="url(#clip0)" transform="translate(-863 -628)"><path d="M914.5 669C920.45 669 925 664.558 925 658.75L925 638.25C925 632.442 920.45 628 914.5 628 908.55 628 904 632.442 904 638.25L904 658.75C904 664.558 908.55 669 914.5 669Z" fill="#FFC000" fill-rule="evenodd"/><path d="M883.647 813.636 938.706 813.636 938.706 841.273 883.647 841.273 883.647 813.636ZM883.647 772.182 938.706 772.182 938.706 799.818 883.647 799.818 883.647 772.182ZM883.647 730.727 938.706 730.727 938.706 758.364 883.647 758.364 883.647 730.727ZM1007.53 730.727 1007.53 758.364 952.471 758.364 952.471 730.727 1007.53 730.727ZM1076.35 730.727 1076.35 758.364 1021.29 758.364 1021.29 730.727 1076.35 730.727ZM1076.35 799.818 1021.29 799.818 1021.29 772.182 1076.35 772.182 1076.35 799.818ZM1076.35 841.273 1021.29 841.273 1021.29 813.636 1076.35 813.636 1076.35 841.273ZM952.471 799.818 952.471 772.182 1007.53 772.182 1007.53 799.818 952.471 799.818ZM952.471 841.273 952.471 813.636 1007.53 813.636 1007.53 841.273 952.471 841.273ZM863 862 1097 862 1097 710 863 710 863 862Z" fill="#FFC000" fill-rule="evenodd"/><path d="M1045 669C1050.67 669 1055 664.558 1055 658.75L1055 638.25C1055 632.442 1050.67 628 1045 628 1039.33 628 1035 632.442 1035 638.25L1035 658.75C1035 664.558 1039.33 669 1045 669Z" fill="#FFC000" fill-rule="evenodd"/><path d="M1069.47 649 1069.47 659.286C1069.47 672.657 1058.8 683.286 1045.38 683.286 1031.96 683.286 1021.29 672.657 1021.29 659.286L1021.29 649 938.706 649 938.706 659.286C938.706 672.657 928.039 683.286 914.618 683.286 901.197 683.286 890.53 672.657 890.53 659.286L890.53 649 863 649 863 697 1097 697 1097 649 1069.47 649Z" fill="#FFC000" fill-rule="evenodd"/></g></svg>